<svg width="1297" height="1297" viewBox="0 0 1297 1297" fill="none" xmlns="http://www.w3.org/2000/svg">
<path fill-rule="evenodd" clip-rule="evenodd" d="M648.131 1296.13C1006.01 1296.13 1296.13 1006.01 1296.13 648.131C1296.13 290.25 1006.01 0.130859 648.131 0.130859C290.25 0.130859 0.130859 290.25 0.130859 648.131C0.130859 1006.01 290.25 1296.13 648.131 1296.13ZM648.131 1046.13C867.94 1046.13 1046.13 867.94 1046.13 648.131C1046.13 428.322 867.94 250.131 648.131 250.131C428.322 250.131 250.131 428.322 250.131 648.131C250.131 867.94 428.322 1046.13 648.131 1046.13Z" fill="#606060" fill-opacity="0.25"/>
<circle cx="648.131" cy="648.131" r="647.5" stroke="#606060"/>
<circle cx="648.131" cy="648.131" r="397.42" stroke="#606060"/>
</svg>
